<svg width="45" height="43" viewBox="0 0 45 43" fill="none" xmlns="http://www.w3.org/2000/svg">
<g filter="url(#filter0_d_30_454)">
<path d="M18.478 14.8046L24.5791 13.0468C26.1172 12.6 27.2451 13.0687 27.3184 14.6361V14.8046H18.478ZM15.7827 27.7172C14.3325 27.7172 13.6001 26.9921 13.6001 25.5638V17.9613C13.6001 16.5258 14.3325 15.808 15.7827 15.808H27.6333C29.0908 15.808 29.8159 16.5331 29.8159 17.9613V19.038H27.106C25.3335 19.038 24.2349 20.1512 24.2349 21.7552C24.2349 23.3593 25.3335 24.4725 27.106 24.4725H29.8159V25.5638C29.8159 26.9847 29.0908 27.7172 27.6333 27.7172H15.7827ZM27.106 23.5204C25.9487 23.5204 25.187 22.9198 25.187 21.7552C25.187 20.5907 25.9487 19.9828 27.106 19.9828H29.7134C30.3872 19.9828 30.7974 20.4589 30.7974 21.0594V22.451C30.7974 23.0443 30.3872 23.5204 29.7134 23.5204H27.106ZM26.9814 22.5023C27.3989 22.5023 27.7358 22.1654 27.7358 21.7552C27.7358 21.3378 27.3989 21.0082 26.9814 21.0082C26.564 21.0082 26.2344 21.3378 26.2344 21.7552C26.2344 22.1654 26.564 22.5023 26.9814 22.5023Z" fill="#3EB8FF"/>
</g>
<defs>
<filter id="filter0_d_30_454" x="9.72748e-05" y="-2.47955e-05" width="44.3973" height="42.3172" filterUnits="userSpaceOnUse" color-interpolation-filters="sRGB">
<feFlood flood-opacity="0" result="BackgroundImageFix"/>
<feColorMatrix in="SourceAlpha" type="matrix" values="0 0 0 0 0 0 0 0 0 0 0 0 0 0 0 0 0 0 127 0" result="hardAlpha"/>
<feOffset dy="1"/>
<feGaussianBlur stdDeviation="6.8"/>
<feComposite in2="hardAlpha" operator="out"/>
<feColorMatrix type="matrix" values="0 0 0 0 0.243137 0 0 0 0 0.721569 0 0 0 0 1 0 0 0 1 0"/>
<feBlend mode="normal" in2="BackgroundImageFix" result="effect1_dropShadow_30_454"/>
<feBlend mode="normal" in="SourceGraphic" in2="effect1_dropShadow_30_454" result="shape"/>
</filter>
</defs>
</svg>
