<svg width="43" height="43" viewBox="10 9 22 22" fill="none" xmlns="http://www.w3.org/2000/svg">
  <path
    d="M30.3105 23.9901C29.6743 25.4945 28.6793 26.8203 27.4124 27.8514C26.1455 28.8824 24.6453 29.5875 23.0429 29.9048C21.4406 30.2222 19.7849 30.1422 18.2206 29.6719C16.6564 29.2015 15.2311 28.3551 14.0695 27.2067C12.9079 26.0583 12.0453 24.6428 11.5571 23.084C11.069 21.5252 10.9701 19.8705 11.2691 18.2647C11.5681 16.6588 12.256 15.1507 13.2725 13.8721C14.2891 12.5935 15.6034 11.5834 17.1005 10.9301"
    stroke="#4DE6B8"
    stroke-width="2"
    stroke-linecap="round"
    stroke-linejoin="round"
    fill="none"
  />
  <path
    d="M31.1006 20.1C31.1006 18.7868 30.8419 17.4864 30.3394 16.2731C29.8368 15.0599 29.1002 13.9575 28.1717 13.0289C27.2431 12.1003 26.1407 11.3637 24.9274 10.8612C23.7142 10.3586 22.4138 10.1 21.1006 10.1V20.1H31.1006Z"
    stroke="#4DE6B8"
    stroke-width="2"
    stroke-linecap="round"
    stroke-linejoin="round"
    fill="none"
  />
</svg>